<?xml version="1.0" encoding="UTF-8"?>
<svg width="74px" height="13px" viewBox="0 0 74 13" version="1.1" xmlns="http://www.w3.org/2000/svg" xmlns:xlink="http://www.w3.org/1999/xlink">
    <!-- Generator: Sketch 52.3 (67297) - http://www.bohemiancoding.com/sketch -->
    <title>mini-white-logo</title>
    <desc>Created with Sketch.</desc>
    <g id="Page-1" stroke="none" stroke-width="1" fill="none" fill-rule="evenodd">
        <g id="Artboard" transform="translate(-324.000000, -426.000000)" fill="#FFFFFF">
            <g id="logos" transform="translate(113.000000, 305.000000)">
                <g id="mini-white-logo" transform="translate(211.000000, 121.000000)">
                    <polygon id="Fill-2" points="3.68784599 8.0356963 8.55774973 8.0356963 8.55774973 5.27536296 3.68784599 5.27536296 3.68784599 3.39460988 8.99796364 3.39460988 8.99796364 0.63548642 0.844722995 0.63548642 0.844722995 12.6429062 3.68784599 12.6429062"></polygon>
                    <path d="M18.3743401,12.8394506 C20.9102118,12.8394506 22.5482866,11.1655864 22.5482866,8.5746358 L22.5482866,0.635425926 L19.6895914,0.635425926 L19.6895914,8.50869753 C19.6895914,9.91759877 18.9373348,10.0803272 18.3743401,10.0803272 C17.7496556,10.0803272 17.1099979,9.89824074 17.1099979,8.54075926 L17.1099979,7.75131481 L14.2519016,7.75131481 L14.2519016,8.60669753 C14.2519016,11.1776852 15.8690139,12.8394506 18.3743401,12.8394506" id="Fill-3"></path>
                    <path d="M34.8829005,3.1983679 C36.8024727,3.1983679 38.1943872,4.64477531 38.1943872,6.63865185 C38.1943872,8.6325284 36.8024727,10.0801457 34.8829005,10.0801457 C32.9633283,10.0801457 31.5714139,8.6325284 31.5714139,6.63865185 C31.5714139,4.64477531 32.9633283,3.1983679 34.8829005,3.1983679 M34.8829005,12.8392691 C38.4094032,12.8392691 41.0680556,10.1733062 41.0680556,6.63865185 C41.0680556,3.10399753 38.4094032,0.439244444 34.8829005,0.439244444 C31.364184,0.439244444 28.7127187,3.10399753 28.7127187,6.63865185 C28.7127187,10.1733062 31.364184,12.8392691 34.8829005,12.8392691" id="Fill-5"></path>
                    <path d="M50.0581818,3.39479136 L52.1029305,3.39479136 C53.1139251,3.39479136 53.6278075,3.82369259 53.6278075,4.67181605 C53.6278075,5.50784074 53.1139251,5.93190247 52.1029305,5.93190247 L50.0581818,5.93190247 L50.0581818,3.39479136 Z M50.0581818,8.51135926 L50.9434011,8.51135926 L53.8074866,12.5329889 L53.8841497,12.6430877 L57.3974759,12.6430877 L54.1297112,8.2101 C55.665369,7.67412469 56.5044706,6.41887778 56.5044706,4.63793951 C56.5044706,2.16979136 54.9179037,0.635667901 52.3640642,0.635667901 L47.2150588,0.635667901 L47.2150588,12.6430877 L50.0581818,12.6430877 L50.0581818,8.51135926 Z" id="Fill-7"></path>
                    <path d="M65.8322738,3.39479136 L67.3577497,3.39479136 C69.2587551,3.39479136 70.5871829,4.72868025 70.5871829,6.63847037 C70.5871829,8.55007531 69.2587551,9.8839642 67.3577497,9.8839642 L65.8322738,9.8839642 L65.8322738,3.39479136 Z M73.4303059,6.63847037 C73.4303059,3.21633457 70.8201668,0.635667901 67.3577497,0.635667901 L62.9891508,0.635667901 L62.9891508,12.6430877 L67.3577497,12.6430877 C70.8201668,12.6430877 73.4303059,10.062421 73.4303059,6.63847037 Z" id="Fill-9"></path>
                </g>
            </g>
        </g>
    </g>
</svg>