<?xml version="1.0" encoding="UTF-8"?>
<svg width="8px" height="16px" viewBox="0 0 8 16" version="1.1" xmlns="http://www.w3.org/2000/svg" xmlns:xlink="http://www.w3.org/1999/xlink">
    <!-- Generator: Sketch 52.3 (67297) - http://www.bohemiancoding.com/sketch -->
    <title>arrow-down-black-icon copy</title>
    <desc>Created with Sketch.</desc>
    <g id="Page-1" stroke="none" stroke-width="1" fill="none" fill-rule="evenodd">
        <g id="Artboard" transform="translate(-999.000000, -227.000000)" fill="#000000" fill-rule="nonzero">
            <g id="icons" transform="translate(113.000000, 71.000000)">
                <g id="black" transform="translate(0.000000, 110.000000)">
                    <g id="mini" transform="translate(586.000000, 42.000000)">
                        <path d="M302.884485,14.9695833 L302.884485,5.09695833 C302.884485,4.49112498 303.383918,4 304,4 C304.616082,4 305.115515,4.49112498 305.115515,5.09695833 L305.115515,14.9695833 L306.884485,14.9695833 C307.180338,14.9695833 307.464073,15.0851554 307.673273,15.290875 C308.108909,15.7192639 308.108909,16.4138195 307.673273,16.8422084 L304.788789,19.6787083 C304.353153,20.1070972 303.646847,20.1070972 303.211211,19.6787083 L300.326727,16.8422084 C300.117527,16.6364888 300,16.3574731 300,16.0665417 C300,15.4607083 300.499433,14.9695833 301.115515,14.9695833 L302.884485,14.9695833 Z" id="arrow-down-black-icon-copy"></path>
                    </g>
                </g>
            </g>
        </g>
    </g>
</svg>