<?xml version="1.0" encoding="UTF-8"?>
<svg width="25px" height="24px" viewBox="0 0 25 24" version="1.1" xmlns="http://www.w3.org/2000/svg" xmlns:xlink="http://www.w3.org/1999/xlink">
    <!-- Generator: Sketch 52.3 (67297) - http://www.bohemiancoding.com/sketch -->
    <title>instagram-icon</title>
    <desc>Created with Sketch.</desc>
    <g id="Page-1" stroke="none" stroke-width="1" fill="none" fill-rule="evenodd">
        <g id="Artboard" transform="translate(-794.000000, -223.000000)" fill="#000000" fill-rule="nonzero">
            <g id="icons" transform="translate(113.000000, 71.000000)">
                <g id="black" transform="translate(0.000000, 110.000000)">
                    <g id="mini" transform="translate(586.000000, 42.000000)">
                        <path d="M107.2,2.163 C110.404,2.163 110.784,2.175 112.05,2.233 C115.302,2.381 116.821,3.924 116.969,7.152 C117.027,8.417 117.038,8.797 117.038,12.001 C117.038,15.206 117.026,15.585 116.969,16.85 C116.82,20.075 115.305,21.621 112.05,21.769 C110.784,21.827 110.406,21.839 107.2,21.839 C103.996,21.839 103.616,21.827 102.351,21.769 C99.091,21.62 97.58,20.07 97.432,16.849 C97.374,15.584 97.362,15.205 97.362,12 C97.362,8.796 97.375,8.417 97.432,7.151 C97.581,3.924 99.096,2.38 102.351,2.232 C103.617,2.175 103.996,2.163 107.2,2.163 Z M107.2,4.85722573e-16 C103.941,4.85722573e-16 103.533,0.014 102.253,0.072 C97.895,0.272 95.473,2.69 95.273,7.052 C95.214,8.333 95.2,8.741 95.2,12 C95.2,15.259 95.214,15.668 95.272,16.948 C95.472,21.306 97.89,23.728 102.252,23.928 C103.533,23.986 103.941,24 107.2,24 C110.459,24 110.868,23.986 112.148,23.928 C116.502,23.728 118.93,21.31 119.127,16.948 C119.186,15.668 119.2,15.259 119.2,12 C119.2,8.741 119.186,8.333 119.128,7.053 C118.932,2.699 116.511,0.273 112.149,0.073 C110.868,0.014 110.459,0 107.2,4.85722573e-16 Z M107.2,5.838 C103.797,5.838 101.038,8.597 101.038,12 C101.038,15.403 103.797,18.163 107.2,18.163 C110.603,18.163 113.362,15.404 113.362,12 C113.362,8.597 110.603,5.838 107.2,5.838 Z M107.2,16 C104.991,16 103.2,14.21 103.2,12 C103.2,9.791 104.991,8 107.2,8 C109.409,8 111.2,9.791 111.2,12 C111.2,14.21 109.409,16 107.2,16 Z M113.606,4.155 C112.81,4.155 112.165,4.8 112.165,5.595 C112.165,6.39 112.81,7.035 113.606,7.035 C114.401,7.035 115.045,6.39 115.045,5.595 C115.045,4.8 114.401,4.155 113.606,4.155 Z" id="instagram-icon"></path>
                    </g>
                </g>
            </g>
        </g>
    </g>
</svg>