<?xml version="1.0" encoding="UTF-8"?>
<svg width="25px" height="14px" viewBox="0 0 25 14" version="1.1" xmlns="http://www.w3.org/2000/svg" xmlns:xlink="http://www.w3.org/1999/xlink">
    <!-- Generator: Sketch 52.3 (67297) - http://www.bohemiancoding.com/sketch -->
    <title>vk-icon</title>
    <desc>Created with Sketch.</desc>
    <g id="Page-1" stroke="none" stroke-width="1" fill="none" fill-rule="evenodd">
        <g id="Artboard" transform="translate(-850.000000, -228.000000)" fill="#000000" fill-rule="nonzero">
            <g id="icons" transform="translate(113.000000, 71.000000)">
                <g id="black" transform="translate(0.000000, 110.000000)">
                    <g id="mini" transform="translate(586.000000, 42.000000)">
                        <path d="M164.362,18.994 C164.971,18.994 165.22,18.588 165.213,18.079 C165.182,16.162 165.927,15.13 167.272,16.475 C168.76,17.963 169.068,18.994 170.875,18.994 L174.075,18.994 C174.883,18.994 175.201,18.734 175.201,18.326 C175.201,17.463 173.78,15.94 172.576,14.822 C170.89,13.257 170.811,13.22 172.263,11.336 C174.064,8.997 176.42,6 174.336,6 L170.355,6 C169.583,6 169.527,6.435 169.252,7.083 C168.257,9.43 166.366,12.47 165.648,12.005 C164.897,11.52 165.241,9.599 165.298,6.744 C165.313,5.99 165.309,5.473 164.157,5.205 C163.528,5.06 162.916,5 162.348,5 C160.075,5 158.507,5.953 159.398,6.119 C160.969,6.412 160.818,9.811 160.452,11.279 C159.814,13.835 157.416,9.255 156.417,6.974 C156.176,6.426 156.102,6 155.242,6 L151.987,6 C151.495,6 151.2,6.16 151.2,6.516 C151.2,7.118 154.16,13.236 156.986,16.286 C159.742,19.261 162.466,18.994 164.362,18.994 Z" id="vk-icon"></path>
                    </g>
                </g>
            </g>
        </g>
    </g>
</svg>